<?xml version="1.0" encoding="UTF-8" standalone="no"?>
<!DOCTYPE svg PUBLIC "-//W3C//DTD SVG 1.1//EN"
 "http://www.w3.org/Graphics/SVG/1.1/DTD/svg11.dtd">
<!-- Generated by graphviz version 5.0.0 (20220707.1540)
 -->
<!-- Pages: 1 -->
<svg width="514pt" height="476pt"
 viewBox="0.00 0.00 513.54 476.00" xmlns="http://www.w3.org/2000/svg" xmlns:xlink="http://www.w3.org/1999/xlink">
<g id="graph0" class="graph" transform="scale(1 1) rotate(0) translate(4 472)">
<polygon fill="white" stroke="transparent" points="-4,4 -4,-472 509.54,-472 509.54,4 -4,4"/>
<!-- [root] aws_eip.lb (expand) -->
<g id="node1" class="node">
<title>[root] aws_eip.lb (expand)</title>
<polygon fill="none" stroke="black" points="290.27,-252 215.27,-252 215.27,-216 290.27,-216 290.27,-252"/>
<text text-anchor="middle" x="252.77" y="-230.3" font-family="Times,serif" font-size="14.00">aws_eip.lb</text>
</g>
<!-- [root] aws_instance.lab16&#45;ec2 (expand) -->
<g id="node2" class="node">
<title>[root] aws_instance.lab16&#45;ec2 (expand)</title>
<polygon fill="none" stroke="black" points="325.77,-180 179.77,-180 179.77,-144 325.77,-144 325.77,-180"/>
<text text-anchor="middle" x="252.77" y="-158.3" font-family="Times,serif" font-size="14.00">aws_instance.lab16&#45;ec2</text>
</g>
<!-- [root] aws_eip.lb (expand)&#45;&gt;[root] aws_instance.lab16&#45;ec2 (expand) -->
<g id="edge1" class="edge">
<title>[root] aws_eip.lb (expand)&#45;&gt;[root] aws_instance.lab16&#45;ec2 (expand)</title>
<path fill="none" stroke="black" d="M252.77,-215.7C252.77,-207.98 252.77,-198.71 252.77,-190.11"/>
<polygon fill="black" stroke="black" points="256.27,-190.1 252.77,-180.1 249.27,-190.1 256.27,-190.1"/>
</g>
<!-- [root] provider[&quot;registry.terraform.io/hashicorp/aws&quot;] -->
<g id="node4" class="node">
<title>[root] provider[&quot;registry.terraform.io/hashicorp/aws&quot;]</title>
<polygon fill="none" stroke="black" points="252.77,-108 0.23,-90 252.77,-72 505.3,-90 252.77,-108"/>
<text text-anchor="middle" x="252.77" y="-86.3" font-family="Times,serif" font-size="14.00">provider[&quot;registry.terraform.io/hashicorp/aws&quot;]</text>
</g>
<!-- [root] aws_instance.lab16&#45;ec2 (expand)&#45;&gt;[root] provider[&quot;registry.terraform.io/hashicorp/aws&quot;] -->
<g id="edge2" class="edge">
<title>[root] aws_instance.lab16&#45;ec2 (expand)&#45;&gt;[root] provider[&quot;registry.terraform.io/hashicorp/aws&quot;]</title>
<path fill="none" stroke="black" d="M252.77,-143.7C252.77,-135.98 252.77,-126.71 252.77,-118.11"/>
<polygon fill="black" stroke="black" points="256.27,-118.1 252.77,-108.1 249.27,-118.1 256.27,-118.1"/>
</g>
<!-- [root] aws_security_group.allow_tls (expand) -->
<g id="node3" class="node">
<title>[root] aws_security_group.allow_tls (expand)</title>
<polygon fill="none" stroke="black" points="342.27,-324 163.27,-324 163.27,-288 342.27,-288 342.27,-324"/>
<text text-anchor="middle" x="252.77" y="-302.3" font-family="Times,serif" font-size="14.00">aws_security_group.allow_tls</text>
</g>
<!-- [root] aws_security_group.allow_tls (expand)&#45;&gt;[root] aws_eip.lb (expand) -->
<g id="edge3" class="edge">
<title>[root] aws_security_group.allow_tls (expand)&#45;&gt;[root] aws_eip.lb (expand)</title>
<path fill="none" stroke="black" d="M252.77,-287.7C252.77,-279.98 252.77,-270.71 252.77,-262.11"/>
<polygon fill="black" stroke="black" points="256.27,-262.1 252.77,-252.1 249.27,-262.1 256.27,-262.1"/>
</g>
<!-- [root] var.AWS_ACCESS_KEY -->
<g id="node5" class="node">
<title>[root] var.AWS_ACCESS_KEY</title>
<polygon fill="none" stroke="black" points="166.27,-36 13.27,-36 13.27,0 172.27,0 172.27,-30 166.27,-36"/>
<polyline fill="none" stroke="black" points="166.27,-36 166.27,-30 "/>
<polyline fill="none" stroke="black" points="172.27,-30 166.27,-30 "/>
<text text-anchor="middle" x="92.77" y="-14.3" font-family="Times,serif" font-size="14.00">var.AWS_ACCESS_KEY</text>
</g>
<!-- [root] provider[&quot;registry.terraform.io/hashicorp/aws&quot;]&#45;&gt;[root] var.AWS_ACCESS_KEY -->
<g id="edge5" class="edge">
<title>[root] provider[&quot;registry.terraform.io/hashicorp/aws&quot;]&#45;&gt;[root] var.AWS_ACCESS_KEY</title>
<path fill="none" stroke="black" d="M219.23,-74.33C196.64,-64.44 166.49,-51.25 141.29,-40.23"/>
<polygon fill="black" stroke="black" points="142.47,-36.92 131.9,-36.12 139.66,-43.34 142.47,-36.92"/>
</g>
<!-- [root] var.AWS_REGION -->
<g id="node6" class="node">
<title>[root] var.AWS_REGION</title>
<polygon fill="none" stroke="black" points="309.27,-36 190.27,-36 190.27,0 315.27,0 315.27,-30 309.27,-36"/>
<polyline fill="none" stroke="black" points="309.27,-36 309.27,-30 "/>
<polyline fill="none" stroke="black" points="315.27,-30 309.27,-30 "/>
<text text-anchor="middle" x="252.77" y="-14.3" font-family="Times,serif" font-size="14.00">var.AWS_REGION</text>
</g>
<!-- [root] provider[&quot;registry.terraform.io/hashicorp/aws&quot;]&#45;&gt;[root] var.AWS_REGION -->
<g id="edge6" class="edge">
<title>[root] provider[&quot;registry.terraform.io/hashicorp/aws&quot;]&#45;&gt;[root] var.AWS_REGION</title>
<path fill="none" stroke="black" d="M252.77,-71.7C252.77,-63.98 252.77,-54.71 252.77,-46.11"/>
<polygon fill="black" stroke="black" points="256.27,-46.1 252.77,-36.1 249.27,-46.1 256.27,-46.1"/>
</g>
<!-- [root] var.AWS_SECRET_KEY -->
<g id="node7" class="node">
<title>[root] var.AWS_SECRET_KEY</title>
<polygon fill="none" stroke="black" points="485.77,-36 333.77,-36 333.77,0 491.77,0 491.77,-30 485.77,-36"/>
<polyline fill="none" stroke="black" points="485.77,-36 485.77,-30 "/>
<polyline fill="none" stroke="black" points="491.77,-30 485.77,-30 "/>
<text text-anchor="middle" x="412.77" y="-14.3" font-family="Times,serif" font-size="14.00">var.AWS_SECRET_KEY</text>
</g>
<!-- [root] provider[&quot;registry.terraform.io/hashicorp/aws&quot;]&#45;&gt;[root] var.AWS_SECRET_KEY -->
<g id="edge7" class="edge">
<title>[root] provider[&quot;registry.terraform.io/hashicorp/aws&quot;]&#45;&gt;[root] var.AWS_SECRET_KEY</title>
<path fill="none" stroke="black" d="M286.31,-74.33C308.9,-64.44 339.05,-51.25 364.24,-40.23"/>
<polygon fill="black" stroke="black" points="365.87,-43.34 373.63,-36.12 363.07,-36.92 365.87,-43.34"/>
</g>
<!-- [root] provider[&quot;registry.terraform.io/hashicorp/aws&quot;] (close) -->
<g id="node8" class="node">
<title>[root] provider[&quot;registry.terraform.io/hashicorp/aws&quot;] (close)</title>
<ellipse fill="none" stroke="black" cx="252.77" cy="-378" rx="227.46" ry="18"/>
<text text-anchor="middle" x="252.77" y="-374.3" font-family="Times,serif" font-size="14.00">[root] provider[&quot;registry.terraform.io/hashicorp/aws&quot;] (close)</text>
</g>
<!-- [root] provider[&quot;registry.terraform.io/hashicorp/aws&quot;] (close)&#45;&gt;[root] aws_security_group.allow_tls (expand) -->
<g id="edge4" class="edge">
<title>[root] provider[&quot;registry.terraform.io/hashicorp/aws&quot;] (close)&#45;&gt;[root] aws_security_group.allow_tls (expand)</title>
<path fill="none" stroke="black" d="M252.77,-359.7C252.77,-351.98 252.77,-342.71 252.77,-334.11"/>
<polygon fill="black" stroke="black" points="256.27,-334.1 252.77,-324.1 249.27,-334.1 256.27,-334.1"/>
</g>
<!-- [root] root -->
<g id="node9" class="node">
<title>[root] root</title>
<ellipse fill="none" stroke="black" cx="252.77" cy="-450" rx="47.39" ry="18"/>
<text text-anchor="middle" x="252.77" y="-446.3" font-family="Times,serif" font-size="14.00">[root] root</text>
</g>
<!-- [root] root&#45;&gt;[root] provider[&quot;registry.terraform.io/hashicorp/aws&quot;] (close) -->
<g id="edge8" class="edge">
<title>[root] root&#45;&gt;[root] provider[&quot;registry.terraform.io/hashicorp/aws&quot;] (close)</title>
<path fill="none" stroke="black" d="M252.77,-431.7C252.77,-423.98 252.77,-414.71 252.77,-406.11"/>
<polygon fill="black" stroke="black" points="256.27,-406.1 252.77,-396.1 249.27,-406.1 256.27,-406.1"/>
</g>
</g>
</svg>
